<svg width="136" height="116" viewBox="0 0 136 116" fill="none" xmlns="http://www.w3.org/2000/svg">
<g filter="url(#filter0_d_1_326)">
<g clip-path="url(#clip0_1_326)">
<path d="M22.2303 0.257324C23.3939 0.257324 24.6869 0.257324 25.8505 0.643039L22.2303 7.71447C16.8 7.32875 12.0162 11.7002 11.6283 17.3573C11.3697 23.0145 15.5071 27.9002 21.0667 28.1573H22.2303C24.6869 28.1573 27.0141 27.2573 28.8242 25.7145L32.703 32.5288C29.7293 34.7145 26.1091 36.0002 22.101 36.0002C12.5333 36.2573 4.38788 28.9288 4 18.9002C3.74141 9.00018 10.9818 0.643039 20.6788 0.257324H22.2303Z" fill="#1D1D1B"/>
<path d="M26.1091 15.5571L21.5839 23.2714H30.3758L34.5132 30.7286L39.0384 23.2714L34.5132 15.5571H26.1091Z" fill="#1D1D1B"/>
<path d="M27.2727 12.7287C27.2727 11.443 27.5313 10.2858 28.1778 9.25725C28.8242 8.35725 29.9879 7.32868 30.8929 6.8144L31.5394 6.42868C32.703 5.78583 33.0909 5.52868 33.0909 4.88583C33.0909 4.24297 32.1858 3.60011 31.5394 3.60011C30.3757 3.60011 29.3414 4.24297 28.8242 5.52868L27.2727 4.1144C27.5313 3.47154 28.1778 2.82868 28.8242 2.18583C29.7293 1.54297 30.6343 1.54297 31.5394 1.54297C32.4444 1.54297 33.7374 1.92868 34.2545 2.44297C34.7717 3.08583 35.4182 3.98583 35.4182 4.88583C35.4182 6.42868 34.5131 7.7144 32.703 8.35725L31.798 9.00011C30.8929 9.64297 30.2464 9.90011 29.9879 10.9287H35.4182V13.1144C35.4182 12.9858 27.2727 12.7287 27.2727 12.7287Z" fill="#1D1D1B"/>
</g>
<path d="M9.205 107.135C7.965 107.135 7.01 106.79 6.34 106.1C5.68 105.4 5.35 104.395 5.35 103.085V96.275H6.655V102.935C6.655 104.045 6.855 104.845 7.255 105.335C7.665 105.815 8.325 106.055 9.235 106.055C10.155 106.055 10.84 105.815 11.29 105.335C11.74 104.855 11.965 103.99 11.965 102.74V96.275H13.27V102.92C13.27 104.26 12.93 105.3 12.25 106.04C11.57 106.77 10.555 107.135 9.205 107.135ZM20.2751 107.135C18.9451 107.135 17.9551 106.825 17.3051 106.205C16.6651 105.575 16.2901 104.75 16.1801 103.73H17.4401C17.4901 104.08 17.5601 104.385 17.6501 104.645C17.7501 104.905 17.9001 105.15 18.1001 105.38C18.3101 105.61 18.5951 105.785 18.9551 105.905C19.3151 106.025 19.7551 106.085 20.2751 106.085C20.9751 106.085 21.5551 105.9 22.0151 105.53C22.4851 105.15 22.7201 104.66 22.7201 104.06C22.7201 103.44 22.5351 102.98 22.1651 102.68C21.8051 102.38 21.1251 102.155 20.1251 102.005C18.9151 101.815 18.0151 101.505 17.4251 101.075C16.8351 100.635 16.5401 99.96 16.5401 99.05C16.5401 98.22 16.8651 97.53 17.5151 96.98C18.1651 96.42 18.9901 96.14 19.9901 96.14C21.0701 96.14 21.9251 96.395 22.5551 96.905C23.1951 97.405 23.5701 98.135 23.6801 99.095H22.5101C22.3801 98.415 22.1151 97.93 21.7151 97.64C21.3251 97.34 20.7501 97.19 19.9901 97.19C19.2701 97.19 18.7151 97.35 18.3251 97.67C17.9451 97.98 17.7551 98.4 17.7551 98.93C17.7551 99.49 17.9251 99.915 18.2651 100.205C18.6051 100.485 19.2951 100.7 20.3351 100.85C21.5951 101.04 22.5151 101.37 23.0951 101.84C23.6851 102.3 23.9801 103.01 23.9801 103.97C23.9801 104.87 23.6251 105.625 22.9151 106.235C22.2151 106.835 21.3351 107.135 20.2751 107.135ZM27.1402 96.275H33.3952V97.34H28.4452V100.985H32.4352V102.05H28.4452V105.935H33.6652V107H27.1402V96.275ZM36.5621 96.275H39.7871C40.8971 96.275 41.7971 96.52 42.4871 97.01C43.1871 97.5 43.5371 98.25 43.5371 99.26V99.32C43.5371 100.15 43.2921 100.81 42.8021 101.3C42.3121 101.78 41.6721 102.095 40.8821 102.245L44.1671 107H42.7121L39.5171 102.335H37.8671V107H36.5621V96.275ZM39.8771 101.3C41.4471 101.3 42.2321 100.64 42.2321 99.32V99.26C42.2321 98.56 42.0321 98.065 41.6321 97.775C41.2321 97.475 40.6471 97.325 39.8771 97.325H37.8671V101.3H39.8771ZM50.2253 107.135C48.8953 107.135 47.9053 106.825 47.2553 106.205C46.6153 105.575 46.2403 104.75 46.1303 103.73H47.3903C47.4403 104.08 47.5103 104.385 47.6003 104.645C47.7003 104.905 47.8503 105.15 48.0503 105.38C48.2603 105.61 48.5453 105.785 48.9053 105.905C49.2653 106.025 49.7053 106.085 50.2253 106.085C50.9253 106.085 51.5053 105.9 51.9653 105.53C52.4353 105.15 52.6703 104.66 52.6703 104.06C52.6703 103.44 52.4853 102.98 52.1153 102.68C51.7553 102.38 51.0753 102.155 50.0753 102.005C48.8653 101.815 47.9653 101.505 47.3753 101.075C46.7853 100.635 46.4903 99.96 46.4903 99.05C46.4903 98.22 46.8153 97.53 47.4653 96.98C48.1153 96.42 48.9403 96.14 49.9403 96.14C51.0203 96.14 51.8753 96.395 52.5053 96.905C53.1453 97.405 53.5203 98.135 53.6303 99.095H52.4603C52.3303 98.415 52.0653 97.93 51.6653 97.64C51.2753 97.34 50.7003 97.19 49.9403 97.19C49.2203 97.19 48.6653 97.35 48.2753 97.67C47.8953 97.98 47.7053 98.4 47.7053 98.93C47.7053 99.49 47.8753 99.915 48.2153 100.205C48.5553 100.485 49.2453 100.7 50.2853 100.85C51.5453 101.04 52.4653 101.37 53.0453 101.84C53.6353 102.3 53.9303 103.01 53.9303 103.97C53.9303 104.87 53.5753 105.625 52.8653 106.235C52.1653 106.835 51.2853 107.135 50.2253 107.135ZM61.8101 96.275H63.1151V105.935H68.0201V107H61.8101V96.275ZM75.0941 106.055C76.2741 106.055 77.2091 105.65 77.8991 104.84C78.5991 104.03 78.9491 102.97 78.9491 101.66V101.54C78.9491 100.3 78.5991 99.265 77.8991 98.435C77.1991 97.605 76.2541 97.19 75.0641 97.19C73.8441 97.19 72.8841 97.595 72.1841 98.405C71.4841 99.205 71.1341 100.26 71.1341 101.57V101.69C71.1341 102.97 71.5091 104.02 72.2591 104.84C73.0191 105.65 73.9641 106.055 75.0941 106.055ZM75.0941 107.135C73.5341 107.135 72.2591 106.615 71.2691 105.575C70.2791 104.525 69.7841 103.235 69.7841 101.705V101.585C69.7841 100.035 70.2741 98.74 71.2541 97.7C72.2441 96.66 73.5141 96.14 75.0641 96.14C76.6141 96.14 77.8741 96.66 78.8441 97.7C79.8141 98.73 80.2991 100.015 80.2991 101.555V101.675C80.2991 103.215 79.8141 104.51 78.8441 105.56C77.8741 106.61 76.6241 107.135 75.0941 107.135ZM82.0537 96.275H83.3437L86.5387 105.74L89.7337 96.275H90.9637L87.2587 107H85.6987L82.0537 96.275ZM93.6939 96.275H99.9489V97.34H94.9989V100.985H98.9889V102.05H94.9989V105.935H100.219V107H93.6939V96.275ZM111.601 107.135C110.361 107.135 109.406 106.79 108.736 106.1C108.076 105.4 107.746 104.395 107.746 103.085V96.275H109.051V102.935C109.051 104.045 109.251 104.845 109.651 105.335C110.061 105.815 110.721 106.055 111.631 106.055C112.551 106.055 113.236 105.815 113.686 105.335C114.136 104.855 114.361 103.99 114.361 102.74V96.275H115.666V102.92C115.666 104.26 115.326 105.3 114.646 106.04C113.966 106.77 112.951 107.135 111.601 107.135ZM122.671 107.135C121.341 107.135 120.351 106.825 119.701 106.205C119.061 105.575 118.686 104.75 118.576 103.73H119.836C119.886 104.08 119.956 104.385 120.046 104.645C120.146 104.905 120.296 105.15 120.496 105.38C120.706 105.61 120.991 105.785 121.351 105.905C121.711 106.025 122.151 106.085 122.671 106.085C123.371 106.085 123.951 105.9 124.411 105.53C124.881 105.15 125.116 104.66 125.116 104.06C125.116 103.44 124.931 102.98 124.561 102.68C124.201 102.38 123.521 102.155 122.521 102.005C121.311 101.815 120.411 101.505 119.821 101.075C119.231 100.635 118.936 99.96 118.936 99.05C118.936 98.22 119.261 97.53 119.911 96.98C120.561 96.42 121.386 96.14 122.386 96.14C123.466 96.14 124.321 96.395 124.951 96.905C125.591 97.405 125.966 98.135 126.076 99.095H124.906C124.776 98.415 124.511 97.93 124.111 97.64C123.721 97.34 123.146 97.19 122.386 97.19C121.666 97.19 121.111 97.35 120.721 97.67C120.341 97.98 120.151 98.4 120.151 98.93C120.151 99.49 120.321 99.915 120.661 100.205C121.001 100.485 121.691 100.7 122.731 100.85C123.991 101.04 124.911 101.37 125.491 101.84C126.081 102.3 126.376 103.01 126.376 103.97C126.376 104.87 126.021 105.625 125.311 106.235C124.611 106.835 123.731 107.135 122.671 107.135Z" fill="black"/>
<g clip-path="url(#clip1_1_326)">
<path fill-rule="evenodd" clip-rule="evenodd" d="M13.9742 56L11.5708 63.3134H4L10.2489 67.9788L7.84548 75.4183L13.9742 70.7528L20.2231 75.4183L17.8197 67.9788L23.9485 63.3134H16.3777L13.9742 56Z" fill="black"/>
<path fill-rule="evenodd" clip-rule="evenodd" d="M40.2936 56L37.8902 63.3134H30.1992L36.328 67.9788L34.0447 75.4183L40.2936 70.7528L46.4224 75.4183L44.0189 67.9788L50.2678 63.3134H42.5769L40.2936 56Z" fill="black"/>
<path fill-rule="evenodd" clip-rule="evenodd" d="M67.5719 56L65.1685 63.3134H57.5977L63.8466 67.9788L61.4431 75.4183L67.5719 70.7528L73.8208 75.4183L71.4174 67.9788L77.5461 63.3134H69.9753L67.5719 56Z" fill="black"/>
<path fill-rule="evenodd" clip-rule="evenodd" d="M94.9703 56L92.6871 63.3134H84.9961L91.1248 67.9788L88.7214 75.4183L94.9703 70.7528L101.099 75.4183L98.8158 67.9788L105.065 63.3134H97.3738L94.9703 56Z" fill="black"/>
<path fill-rule="evenodd" clip-rule="evenodd" d="M121.166 56L118.762 63.3134H111.191L117.32 67.9788L115.037 75.4183L121.166 70.7528L127.415 75.4183L125.011 67.9788L131.14 63.3134H123.449L121.166 56Z" fill="black"/>
</g>
</g>
<defs>
<filter id="filter0_d_1_326" x="0" y="0" width="136" height="124" filterUnits="userSpaceOnUse" color-interpolation-filters="sRGB">
<feFlood flood-opacity="0" result="BackgroundImageFix"/>
<feColorMatrix in="SourceAlpha" type="matrix" values="0 0 0 0 0 0 0 0 0 0 0 0 0 0 0 0 0 0 127 0" result="hardAlpha"/>
<feOffset dy="4"/>
<feGaussianBlur stdDeviation="2"/>
<feComposite in2="hardAlpha" operator="out"/>
<feColorMatrix type="matrix" values="0 0 0 0 0 0 0 0 0 0 0 0 0 0 0 0 0 0 0.25 0"/>
<feBlend mode="normal" in2="BackgroundImageFix" result="effect1_dropShadow_1_326"/>
<feBlend mode="normal" in="SourceGraphic" in2="effect1_dropShadow_1_326" result="shape"/>
</filter>
<clipPath id="clip0_1_326">
<rect width="128" height="36" fill="white" transform="translate(4)"/>
</clipPath>
<clipPath id="clip1_1_326">
<rect width="128" height="20" fill="white" transform="translate(4 56)"/>
</clipPath>
</defs>
</svg>
