<svg width="128" height="116" viewBox="0 0 128 116" fill="none" xmlns="http://www.w3.org/2000/svg">
<g clip-path="url(#clip0_1_326)">
<path d="M18.2303 0.257324C19.3939 0.257324 20.6869 0.257324 21.8505 0.643039L18.2303 7.71447C12.8 7.32875 8.01616 11.7002 7.62828 17.3573C7.3697 23.0145 11.5071 27.9002 17.0667 28.1573H18.2303C20.6869 28.1573 23.0141 27.2573 24.8242 25.7145L28.703 32.5288C25.7293 34.7145 22.1091 36.0002 18.101 36.0002C8.53333 36.2573 0.387879 28.9288 -2.29571e-07 18.9002C-0.258586 9.00018 6.98182 0.643039 16.6788 0.257324H18.2303Z" fill="#1D1D1B"/>
<path d="M22.1091 15.5571L17.5839 23.2714H26.3758L30.5132 30.7286L35.0384 23.2714L30.5132 15.5571H22.1091Z" fill="#1D1D1B"/>
<path d="M23.2727 12.7287C23.2727 11.443 23.5313 10.2858 24.1778 9.25725C24.8242 8.35725 25.9879 7.32868 26.8929 6.8144L27.5394 6.42868C28.703 5.78583 29.0909 5.52868 29.0909 4.88583C29.0909 4.24297 28.1858 3.60011 27.5394 3.60011C26.3757 3.60011 25.3414 4.24297 24.8242 5.52868L23.2727 4.1144C23.5313 3.47154 24.1778 2.82868 24.8242 2.18583C25.7293 1.54297 26.6343 1.54297 27.5394 1.54297C28.4444 1.54297 29.7374 1.92868 30.2545 2.44297C30.7717 3.08583 31.4182 3.98583 31.4182 4.88583C31.4182 6.42868 30.5131 7.7144 28.703 8.35725L27.798 9.00011C26.8929 9.64297 26.2464 9.90011 25.9879 10.9287H31.4182V13.1144C31.4182 12.9858 23.2727 12.7287 23.2727 12.7287Z" fill="#1D1D1B"/>
</g>
<path d="M5.205 107.135C3.965 107.135 3.01 106.79 2.34 106.1C1.68 105.4 1.35 104.395 1.35 103.085V96.275H2.655V102.935C2.655 104.045 2.855 104.845 3.255 105.335C3.665 105.815 4.325 106.055 5.235 106.055C6.155 106.055 6.84 105.815 7.29 105.335C7.74 104.855 7.965 103.99 7.965 102.74V96.275H9.27V102.92C9.27 104.26 8.93 105.3 8.25 106.04C7.57 106.77 6.555 107.135 5.205 107.135ZM16.2751 107.135C14.9451 107.135 13.9551 106.825 13.3051 106.205C12.6651 105.575 12.2901 104.75 12.1801 103.73H13.4401C13.4901 104.08 13.5601 104.385 13.6501 104.645C13.7501 104.905 13.9001 105.15 14.1001 105.38C14.3101 105.61 14.5951 105.785 14.9551 105.905C15.3151 106.025 15.7551 106.085 16.2751 106.085C16.9751 106.085 17.5551 105.9 18.0151 105.53C18.4851 105.15 18.7201 104.66 18.7201 104.06C18.7201 103.44 18.5351 102.98 18.1651 102.68C17.8051 102.38 17.1251 102.155 16.1251 102.005C14.9151 101.815 14.0151 101.505 13.4251 101.075C12.8351 100.635 12.5401 99.96 12.5401 99.05C12.5401 98.22 12.8651 97.53 13.5151 96.98C14.1651 96.42 14.9901 96.14 15.9901 96.14C17.0701 96.14 17.9251 96.395 18.5551 96.905C19.1951 97.405 19.5701 98.135 19.6801 99.095H18.5101C18.3801 98.415 18.1151 97.93 17.7151 97.64C17.3251 97.34 16.7501 97.19 15.9901 97.19C15.2701 97.19 14.7151 97.35 14.3251 97.67C13.9451 97.98 13.7551 98.4 13.7551 98.93C13.7551 99.49 13.9251 99.915 14.2651 100.205C14.6051 100.485 15.2951 100.7 16.3351 100.85C17.5951 101.04 18.5151 101.37 19.0951 101.84C19.6851 102.3 19.9801 103.01 19.9801 103.97C19.9801 104.87 19.6251 105.625 18.9151 106.235C18.2151 106.835 17.3351 107.135 16.2751 107.135ZM23.1402 96.275H29.3952V97.34H24.4452V100.985H28.4352V102.05H24.4452V105.935H29.6652V107H23.1402V96.275ZM32.5621 96.275H35.7871C36.8971 96.275 37.7971 96.52 38.4871 97.01C39.1871 97.5 39.5371 98.25 39.5371 99.26V99.32C39.5371 100.15 39.2921 100.81 38.8021 101.3C38.3121 101.78 37.6721 102.095 36.8821 102.245L40.1671 107H38.7121L35.5171 102.335H33.8671V107H32.5621V96.275ZM35.8771 101.3C37.4471 101.3 38.2321 100.64 38.2321 99.32V99.26C38.2321 98.56 38.0321 98.065 37.6321 97.775C37.2321 97.475 36.6471 97.325 35.8771 97.325H33.8671V101.3H35.8771ZM46.2253 107.135C44.8953 107.135 43.9053 106.825 43.2553 106.205C42.6153 105.575 42.2403 104.75 42.1303 103.73H43.3903C43.4403 104.08 43.5103 104.385 43.6003 104.645C43.7003 104.905 43.8503 105.15 44.0503 105.38C44.2603 105.61 44.5453 105.785 44.9053 105.905C45.2653 106.025 45.7053 106.085 46.2253 106.085C46.9253 106.085 47.5053 105.9 47.9653 105.53C48.4353 105.15 48.6703 104.66 48.6703 104.06C48.6703 103.44 48.4853 102.98 48.1153 102.68C47.7553 102.38 47.0753 102.155 46.0753 102.005C44.8653 101.815 43.9653 101.505 43.3753 101.075C42.7853 100.635 42.4903 99.96 42.4903 99.05C42.4903 98.22 42.8153 97.53 43.4653 96.98C44.1153 96.42 44.9403 96.14 45.9403 96.14C47.0203 96.14 47.8753 96.395 48.5053 96.905C49.1453 97.405 49.5203 98.135 49.6303 99.095H48.4603C48.3303 98.415 48.0653 97.93 47.6653 97.64C47.2753 97.34 46.7003 97.19 45.9403 97.19C45.2203 97.19 44.6653 97.35 44.2753 97.67C43.8953 97.98 43.7053 98.4 43.7053 98.93C43.7053 99.49 43.8753 99.915 44.2153 100.205C44.5553 100.485 45.2453 100.7 46.2853 100.85C47.5453 101.04 48.4653 101.37 49.0453 101.84C49.6353 102.3 49.9303 103.01 49.9303 103.97C49.9303 104.87 49.5753 105.625 48.8653 106.235C48.1653 106.835 47.2853 107.135 46.2253 107.135ZM57.8101 96.275H59.1151V105.935H64.0201V107H57.8101V96.275ZM71.0941 106.055C72.2741 106.055 73.2091 105.65 73.8991 104.84C74.5991 104.03 74.9491 102.97 74.9491 101.66V101.54C74.9491 100.3 74.5991 99.265 73.8991 98.435C73.1991 97.605 72.2541 97.19 71.0641 97.19C69.8441 97.19 68.8841 97.595 68.1841 98.405C67.4841 99.205 67.1341 100.26 67.1341 101.57V101.69C67.1341 102.97 67.5091 104.02 68.2591 104.84C69.0191 105.65 69.9641 106.055 71.0941 106.055ZM71.0941 107.135C69.5341 107.135 68.2591 106.615 67.2691 105.575C66.2791 104.525 65.7841 103.235 65.7841 101.705V101.585C65.7841 100.035 66.2741 98.74 67.2541 97.7C68.2441 96.66 69.5141 96.14 71.0641 96.14C72.6141 96.14 73.8741 96.66 74.8441 97.7C75.8141 98.73 76.2991 100.015 76.2991 101.555V101.675C76.2991 103.215 75.8141 104.51 74.8441 105.56C73.8741 106.61 72.6241 107.135 71.0941 107.135ZM78.0537 96.275H79.3437L82.5387 105.74L85.7337 96.275H86.9637L83.2587 107H81.6987L78.0537 96.275ZM89.6939 96.275H95.9489V97.34H90.9989V100.985H94.9889V102.05H90.9989V105.935H96.2189V107H89.6939V96.275ZM107.601 107.135C106.361 107.135 105.406 106.79 104.736 106.1C104.076 105.4 103.746 104.395 103.746 103.085V96.275H105.051V102.935C105.051 104.045 105.251 104.845 105.651 105.335C106.061 105.815 106.721 106.055 107.631 106.055C108.551 106.055 109.236 105.815 109.686 105.335C110.136 104.855 110.361 103.99 110.361 102.74V96.275H111.666V102.92C111.666 104.26 111.326 105.3 110.646 106.04C109.966 106.77 108.951 107.135 107.601 107.135ZM118.671 107.135C117.341 107.135 116.351 106.825 115.701 106.205C115.061 105.575 114.686 104.75 114.576 103.73H115.836C115.886 104.08 115.956 104.385 116.046 104.645C116.146 104.905 116.296 105.15 116.496 105.38C116.706 105.61 116.991 105.785 117.351 105.905C117.711 106.025 118.151 106.085 118.671 106.085C119.371 106.085 119.951 105.9 120.411 105.53C120.881 105.15 121.116 104.66 121.116 104.06C121.116 103.44 120.931 102.98 120.561 102.68C120.201 102.38 119.521 102.155 118.521 102.005C117.311 101.815 116.411 101.505 115.821 101.075C115.231 100.635 114.936 99.96 114.936 99.05C114.936 98.22 115.261 97.53 115.911 96.98C116.561 96.42 117.386 96.14 118.386 96.14C119.466 96.14 120.321 96.395 120.951 96.905C121.591 97.405 121.966 98.135 122.076 99.095H120.906C120.776 98.415 120.511 97.93 120.111 97.64C119.721 97.34 119.146 97.19 118.386 97.19C117.666 97.19 117.111 97.35 116.721 97.67C116.341 97.98 116.151 98.4 116.151 98.93C116.151 99.49 116.321 99.915 116.661 100.205C117.001 100.485 117.691 100.7 118.731 100.85C119.991 101.04 120.911 101.37 121.491 101.84C122.081 102.3 122.376 103.01 122.376 103.97C122.376 104.87 122.021 105.625 121.311 106.235C120.611 106.835 119.731 107.135 118.671 107.135Z" fill="black"/>
<g clip-path="url(#clip1_1_326)">
<path fill-rule="evenodd" clip-rule="evenodd" d="M9.97423 56L7.5708 63.3134H0L6.24891 67.9788L3.84548 75.4183L9.97423 70.7528L16.2231 75.4183L13.8197 67.9788L19.9485 63.3134H12.3777L9.97423 56Z" fill="black"/>
<path fill-rule="evenodd" clip-rule="evenodd" d="M36.2936 56L33.8902 63.3134H26.1992L32.328 67.9788L30.0447 75.4183L36.2936 70.7528L42.4224 75.4183L40.0189 67.9788L46.2678 63.3134H38.5769L36.2936 56Z" fill="black"/>
<path fill-rule="evenodd" clip-rule="evenodd" d="M63.5719 56L61.1685 63.3134H53.5977L59.8466 67.9788L57.4431 75.4183L63.5719 70.7528L69.8208 75.4183L67.4174 67.9788L73.5461 63.3134H65.9753L63.5719 56Z" fill="black"/>
<path fill-rule="evenodd" clip-rule="evenodd" d="M90.9703 56L88.6871 63.3134H80.9961L87.1248 67.9788L84.7214 75.4183L90.9703 70.7528L97.0991 75.4183L94.8158 67.9788L101.065 63.3134H93.3738L90.9703 56Z" fill="black"/>
<path fill-rule="evenodd" clip-rule="evenodd" d="M117.166 56L114.762 63.3134H107.191L113.32 67.9788L111.037 75.4183L117.166 70.7528L123.415 75.4183L121.011 67.9788L127.14 63.3134H119.449L117.166 56Z" fill="black"/>
</g>
<defs>
<clipPath id="clip0_1_326">
<rect width="128" height="36" fill="white"/>
</clipPath>
<clipPath id="clip1_1_326">
<rect width="128" height="20" fill="white" transform="translate(0 56)"/>
</clipPath>
</defs>
</svg>
