<svg width="150" height="116" viewBox="0 0 150 116" fill="none" xmlns="http://www.w3.org/2000/svg">
<g clip-path="url(#clip0_1_341)">
<path fill-rule="evenodd" clip-rule="evenodd" d="M42.4803 25.3601C42.7441 25.2282 43.008 25.4921 43.1399 25.7559C43.1399 25.7559 43.5357 27.339 44.0634 27.339C44.0634 27.6029 44.0634 27.8667 43.7995 27.9987C42.876 28.3944 40.8971 28.9221 38.7863 28.9221C32.4539 28.9221 27.9684 24.4367 27.9684 18.3681C27.9684 11.9037 32.7177 7.81396 39.1821 7.81396C40.1056 7.81396 41.9526 8.07782 43.1399 8.34167C43.2718 8.47359 43.5357 8.73745 43.5357 9.0013V13.3549C43.5357 13.6187 43.2718 13.8826 43.008 13.8826H41.8206C41.5568 13.8826 41.4248 13.7506 41.2929 13.4868L40.8971 11.7717C40.6333 10.8483 39.8417 10.4525 38.2586 10.4525C33.7731 10.4525 32.3219 14.0145 32.3219 17.7084C32.3219 21.9301 34.3008 25.8878 39.314 25.8878C40.3694 26.0198 41.8206 25.7559 42.4803 25.3601ZM52.5066 26.2836C54.0898 26.2836 55.1452 25.0963 55.1452 23.909L55.0132 21.5343C55.0132 21.4024 55.0132 21.2704 54.7494 21.2704C51.3193 21.2704 50.132 22.4578 50.132 24.1728C50 25.3601 51.0555 26.2836 52.5066 26.2836ZM60.9499 26.5475C60.9499 26.2836 60.6861 26.1517 60.4222 26.1517C60.1584 26.2836 59.8945 26.2836 59.6307 26.2836C58.971 26.2836 58.8391 25.8878 58.8391 25.3601V18.3681C58.8391 14.2783 56.3325 12.6952 52.6386 12.6952C50.7916 12.6952 48.8127 13.091 47.4934 13.6187C47.2296 13.7506 47.0977 14.0145 47.2296 14.2783L47.6254 16.1253C47.7573 16.5211 48.0212 16.5211 48.285 16.3892C49.2085 15.8615 50.3958 15.5976 51.5832 15.5976C53.562 15.5976 55.0132 16.3892 55.0132 18.1042V18.6319C55.0132 18.8958 54.8813 19.1596 54.7494 19.1596C50.132 19.1596 46.3061 20.6108 46.3061 24.8324C46.3061 27.2071 48.0212 29.0541 50.7916 29.0541C53.2982 29.0541 54.4855 27.9987 55.409 26.9433H55.5409C55.6729 28.1306 56.3325 29.0541 58.0475 29.0541C58.971 29.0541 60.5541 28.7902 60.818 28.5264C61.0818 28.3944 61.0818 28.2625 61.0818 27.9987L60.9499 26.5475ZM71.1082 15.7295C69.5251 15.7295 68.3378 16.653 68.3378 18.1042V24.1728C68.3378 25.4921 69.2613 26.2836 70.8444 26.2836C73.7467 26.2836 74.8022 23.3812 74.8022 20.7427C74.6702 18.2361 73.6148 15.7295 71.1082 15.7295ZM70.7124 34.463C70.9763 34.463 71.2402 34.1992 71.2402 33.9353V33.1438C71.2402 32.8799 71.1082 32.6161 70.8444 32.6161L68.9974 32.3522C68.7336 32.2203 68.3378 31.9564 68.3378 31.4287V28.1306C68.4697 28.1306 68.7336 28.1306 68.9974 28.1306C69.3932 28.1306 69.657 28.2625 70.0528 28.2625C75.8576 28.2625 78.7599 24.7005 78.7599 19.5554C78.7599 15.3338 76.2533 12.4314 72.6913 12.4314C70.3167 12.4314 68.9974 13.6187 67.942 14.806H67.8101L67.5462 13.3549C67.5462 13.091 67.2824 12.6952 66.8866 12.8272L62.0053 13.3549C61.7415 13.3549 61.4776 13.6187 61.4776 13.8826V14.6741C61.4776 14.938 61.6095 15.0699 61.8734 15.2018L63.3246 15.4657C63.8523 15.5976 63.9842 16.1253 63.9842 16.3892V31.8245C63.9842 32.4841 63.7204 32.748 63.3246 32.748L62.1372 33.1438C61.8734 33.2757 61.7415 33.4076 61.7415 33.6715V34.463C61.7415 34.7269 62.0053 34.9907 62.2692 34.9907L70.7124 34.463ZM90.5014 25.7559C90.8971 25.7559 91.161 25.8878 91.161 26.1517L91.6887 27.7348C91.6887 28.1306 91.6887 28.2625 91.4249 28.3944C90.5014 28.9221 88.7863 29.186 87.599 29.186C84.5647 29.186 82.4539 27.471 82.4539 24.4367V16.5211C82.4539 16.2572 82.3219 16.1253 82.0581 16.1253H79.9473C79.6834 16.1253 79.6834 15.9934 79.6834 15.7295L79.8153 14.0145C79.8153 14.0145 79.9473 13.7506 80.0792 13.7506H81.7942C82.19 13.7506 82.19 13.4868 82.19 13.2229V11.244C82.19 10.8483 82.3219 10.5844 82.7177 10.4525L85.6201 9.529C86.0159 9.39708 86.1478 9.66093 86.1478 10.0567V13.2229C86.1478 13.3549 86.2797 13.6187 86.5436 13.6187H90.3694C90.5014 13.6187 90.6333 13.7506 90.6333 13.8826V15.7295C90.6333 15.7295 90.5014 15.9934 90.3694 15.9934H86.5436C86.2797 15.9934 86.0159 16.1253 86.0159 16.3892V23.5132C86.0159 25.2282 86.9394 26.2836 88.6544 26.2836C89.1821 26.1517 89.8417 26.0198 90.5014 25.7559ZM102.111 17.1807C102.111 19.2915 100 19.9512 98.0212 19.9512C97.4935 19.9512 97.0977 19.9512 96.8338 19.8192C96.57 19.8192 96.438 19.6873 96.438 19.4235C96.3061 17.4446 97.3615 14.806 99.7362 14.806C101.187 14.806 102.111 15.8615 102.111 17.1807ZM104.749 25.2282C105.013 24.9644 105.277 25.2282 105.409 25.4921L105.541 27.0752C105.673 27.339 105.541 27.6029 105.277 27.7348C104.09 28.5264 102.243 28.9221 100.528 28.9221C95.2507 28.9221 92.4803 25.624 92.4803 20.7427C92.4803 16.1253 96.0423 12.6952 100.396 12.6952C103.298 12.6952 106.201 14.2783 106.201 17.3126C106.201 20.8747 102.507 22.1939 99.3404 22.1939C98.9446 22.1939 98.5489 22.1939 98.1531 22.1939C97.7573 22.1939 97.4934 22.1939 97.2296 22.1939C96.9657 22.1939 96.8338 22.3258 96.8338 22.5897C97.0977 24.9644 99.4723 26.4155 101.451 26.4155C102.902 26.4155 103.958 25.8878 104.749 25.4921C104.749 25.2282 104.749 25.2282 104.749 25.2282ZM116.623 28.6583C116.887 28.6583 117.15 28.3944 117.15 28.1306V27.339C117.15 27.0752 117.019 26.9433 116.755 26.8113L114.908 26.5475C114.644 26.5475 114.248 26.1517 114.248 25.624V18.7638C114.248 17.1807 115.567 16.2572 117.019 16.2572C117.678 16.2572 118.338 16.3892 118.865 16.5211C119.129 16.653 119.525 16.3892 119.525 16.2572L120.185 13.4868C120.317 13.091 120.185 12.8272 119.921 12.8272C119.525 12.5633 118.997 12.5633 118.602 12.5633C116.623 12.5633 115.303 13.8826 114.116 15.4657H113.984L113.72 13.3549C113.72 12.9591 113.457 12.6952 113.193 12.6952L108.311 13.3549C108.048 13.3549 107.784 13.6187 107.784 13.8826V14.6741C107.784 14.938 107.916 15.0699 108.179 15.2018L109.631 15.4657C110.158 15.5976 110.29 16.1253 110.29 16.3892V25.8878C110.29 26.5475 110.026 26.8113 109.631 26.8113L108.311 27.0752C108.048 27.2071 107.916 27.339 107.916 27.6029V28.3944C107.916 28.6583 108.179 28.9221 108.443 28.9221H116.623V28.6583ZM130.475 28.1306C130.475 28.3944 130.211 28.6583 129.947 28.6583H121.768C121.504 28.6583 121.24 28.3944 121.24 28.1306V27.339C121.24 27.0752 121.372 26.9433 121.636 26.8113L122.955 26.5475C123.351 26.5475 123.615 26.1517 123.615 25.624V16.1253C123.615 15.7295 123.483 15.3338 122.955 15.2018L121.504 14.938C121.24 14.806 121.108 14.6741 121.108 14.4103V13.6187C121.108 13.3549 121.372 13.091 121.636 13.091L126.517 12.4314C126.781 12.4314 127.045 12.6952 127.045 13.091L127.309 15.4657H127.441C128.628 13.8826 130.079 12.5633 131.926 12.5633C132.322 12.5633 132.85 12.5633 133.245 12.8272C133.509 12.8272 133.641 13.091 133.509 13.4868L132.85 16.2572C132.85 16.3892 132.454 16.653 132.19 16.5211C131.662 16.3892 131.003 16.2572 130.343 16.2572C128.892 16.2572 127.573 17.1807 127.573 18.7638V25.624C127.573 26.2836 127.968 26.5475 128.232 26.5475L130.079 26.8113C130.343 26.9433 130.475 27.0752 130.475 27.339V28.1306ZM144.063 23.909C144.063 25.0963 143.14 26.2836 141.425 26.2836C140.106 26.2836 138.918 25.3601 138.918 24.0409C138.918 22.3258 140.106 21.1385 143.536 21.1385C143.8 21.1385 143.8 21.2704 143.8 21.4024L144.063 23.909ZM149.34 26.1517C149.604 26.1517 149.868 26.2836 149.868 26.5475L150.132 28.1306C150.132 28.3944 150.132 28.5264 149.868 28.6583C149.472 28.9221 148.021 29.186 147.098 29.186C145.515 29.186 144.723 28.3944 144.591 27.0752H144.459C143.536 27.9987 142.216 29.186 139.842 29.186C137.071 29.186 135.356 27.339 135.356 24.9644C135.356 20.7427 139.182 19.2915 143.8 19.2915C143.931 19.2915 144.063 19.0277 144.063 18.7638V18.1042C144.063 16.2572 142.612 15.5976 140.633 15.5976C139.446 15.5976 138.127 15.9934 137.335 16.3892C137.071 16.5211 136.807 16.5211 136.675 16.1253L136.28 14.2783C136.148 14.0145 136.28 13.7506 136.544 13.6187C137.863 12.9591 139.842 12.6952 141.689 12.6952C145.383 12.6952 147.889 14.2783 147.889 18.3681V25.3601C147.889 26.0198 148.153 26.2836 148.813 26.2836C148.813 26.2836 149.077 26.2836 149.34 26.1517Z" fill="black"/>
<path fill-rule="evenodd" clip-rule="evenodd" d="M6.0686 17.4447H0.791557C0.659631 17.4447 0.527704 17.3127 0.659631 17.3127C0.527704 17.3127 0.527704 17.1808 0.527704 17.0489L0.659631 16.3892C0.791557 16.1254 0.791557 15.9935 0.791557 15.9935C0.791557 15.8615 0.923483 15.7296 0.923483 15.5977C0.923483 15.3338 1.05541 15.07 1.18734 14.8061C3.29815 7.02249 10.1583 0.953888 10.8179 0.294257C11.2137 0.162331 11.3456 0.162331 11.6095 0.294257C18.8654 6.75864 21.6359 13.223 21.8997 16.785V17.1808C21.8997 17.3127 21.7678 17.5766 21.504 17.5766H16.095C15.9631 17.5766 15.6992 17.5766 15.6992 17.3127C15.1715 15.07 13.1926 13.6188 11.0818 13.6188C8.83905 13.6188 6.99208 15.2019 6.46438 17.3127C6.33245 17.3127 6.33245 17.4447 6.0686 17.4447ZM15.8311 19.5555H21.2401C21.2401 19.5555 21.504 19.5555 21.2401 19.6874C21.372 19.6874 21.372 19.8193 21.372 19.9513L21.2401 20.6109C21.1082 20.7428 21.1082 20.8747 21.1082 20.8747C21.1082 21.0067 20.9763 21.1386 20.9763 21.2705C20.9763 21.5344 20.8443 21.7982 20.7124 22.0621C18.4697 29.8457 11.6095 36.0462 10.9499 36.7059C10.686 36.8378 10.5541 36.8378 10.2902 36.7059C3.16623 30.2415 0.263852 23.7771 0 20.2151V19.8193C0 19.6874 0.131926 19.4235 0.395778 19.4235H5.80475C5.93668 19.4235 6.20053 19.4235 6.20053 19.6874C6.72823 21.9301 8.70712 23.3813 10.8179 23.3813C13.0607 23.3813 14.9077 21.7982 15.4354 19.6874C15.4354 19.6874 15.5673 19.5555 15.8311 19.5555Z" fill="black"/>
</g>
<path d="M1.44 97.275H2.745V102.135H8.385V97.275H9.69V108H8.385V103.23H2.745V108H1.44V97.275ZM13.3978 97.275H14.7028V108H13.3978V97.275ZM23.0738 108.135C21.4638 108.135 20.1938 107.635 19.2638 106.635C18.3438 105.625 17.8838 104.315 17.8838 102.705V102.585C17.8838 101.005 18.3638 99.7 19.3238 98.67C20.2938 97.63 21.5438 97.11 23.0738 97.11C24.2138 97.11 25.1888 97.395 25.9988 97.965C26.8088 98.525 27.2888 99.375 27.4388 100.515H26.1338C25.8538 98.935 24.8438 98.145 23.1038 98.145C21.8838 98.145 20.9338 98.55 20.2538 99.36C19.5738 100.16 19.2338 101.23 19.2338 102.57V102.69C19.2338 104.05 19.5638 105.125 20.2238 105.915C20.8838 106.695 21.8338 107.085 23.0738 107.085C24.1838 107.085 25.0188 106.77 25.5788 106.14C26.1388 105.51 26.4288 104.685 26.4488 103.665H23.3138V102.585H27.7238V103.38C27.7238 104.9 27.2988 106.075 26.4488 106.905C25.6088 107.725 24.4838 108.135 23.0738 108.135ZM30.8482 97.275H32.1532V102.135H37.7932V97.275H39.0982V108H37.7932V103.23H32.1532V108H30.8482V97.275ZM42.731 97.275H48.986V98.34H44.036V101.985H48.026V103.05H44.036V106.935H49.256V108H42.731V97.275ZM55.6179 108.135C54.2879 108.135 53.2979 107.825 52.6479 107.205C52.0079 106.575 51.6329 105.75 51.5229 104.73H52.7829C52.8329 105.08 52.9029 105.385 52.9929 105.645C53.0929 105.905 53.2429 106.15 53.4429 106.38C53.6529 106.61 53.9379 106.785 54.2979 106.905C54.6579 107.025 55.0979 107.085 55.6179 107.085C56.3179 107.085 56.8979 106.9 57.3579 106.53C57.8279 106.15 58.0629 105.66 58.0629 105.06C58.0629 104.44 57.8779 103.98 57.5079 103.68C57.1479 103.38 56.4679 103.155 55.4679 103.005C54.2579 102.815 53.3579 102.505 52.7679 102.075C52.1779 101.635 51.8829 100.96 51.8829 100.05C51.8829 99.22 52.2079 98.53 52.8579 97.98C53.5079 97.42 54.3329 97.14 55.3329 97.14C56.4129 97.14 57.2679 97.395 57.8979 97.905C58.5379 98.405 58.9129 99.135 59.0229 100.095H57.8529C57.7229 99.415 57.4579 98.93 57.0579 98.64C56.6679 98.34 56.0929 98.19 55.3329 98.19C54.6129 98.19 54.0579 98.35 53.6679 98.67C53.2879 98.98 53.0979 99.4 53.0979 99.93C53.0979 100.49 53.2679 100.915 53.6079 101.205C53.9479 101.485 54.6379 101.7 55.6779 101.85C56.9379 102.04 57.8579 102.37 58.4379 102.84C59.0279 103.3 59.3229 104.01 59.3229 104.97C59.3229 105.87 58.9679 106.625 58.2579 107.235C57.5579 107.835 56.6779 108.135 55.6179 108.135ZM64.3071 98.34H61.1871V97.275H68.7321V98.34H65.6121V108H64.3071V98.34ZM76.1705 97.275H79.3955C80.5055 97.275 81.4055 97.52 82.0955 98.01C82.7955 98.5 83.1455 99.25 83.1455 100.26V100.32C83.1455 101.15 82.9005 101.81 82.4105 102.3C81.9205 102.78 81.2805 103.095 80.4905 103.245L83.7755 108H82.3205L79.1255 103.335H77.4755V108H76.1705V97.275ZM79.4855 102.3C81.0555 102.3 81.8405 101.64 81.8405 100.32V100.26C81.8405 99.56 81.6405 99.065 81.2405 98.775C80.8405 98.475 80.2555 98.325 79.4855 98.325H77.4755V102.3H79.4855ZM89.3952 97.275H91.1052L94.7352 108H93.4452L92.3952 104.91H87.9702L86.9352 108H85.7052L89.3952 97.275ZM88.3302 103.875H92.0502L90.1902 98.355L88.3302 103.875ZM98.6987 98.34H95.5787V97.275H103.124V98.34H100.004V108H98.6987V98.34ZM105.842 97.275H112.097V98.34H107.147V101.985H111.137V103.05H107.147V106.935H112.367V108H105.842V97.275ZM118.039 106.935C119.389 106.935 120.414 106.56 121.114 105.81C121.824 105.05 122.179 104 122.179 102.66V102.54C122.179 101.23 121.839 100.2 121.159 99.45C120.489 98.7 119.444 98.325 118.024 98.325H116.569V106.935H118.039ZM115.264 97.275H118.099C119.869 97.275 121.214 97.76 122.134 98.73C123.064 99.7 123.529 100.97 123.529 102.54V102.675C123.529 104.245 123.069 105.525 122.149 106.515C121.229 107.505 119.869 108 118.069 108H115.264V97.275Z" fill="black"/>
<g clip-path="url(#clip1_1_341)">
<path fill-rule="evenodd" clip-rule="evenodd" d="M9.97423 57L7.5708 64.3134H0L6.24891 68.9788L3.84548 76.4183L9.97423 71.7528L16.2231 76.4183L13.8197 68.9788L19.9485 64.3134H12.3777L9.97423 57Z" fill="black"/>
<path fill-rule="evenodd" clip-rule="evenodd" d="M36.2936 57L33.8902 64.3134H26.1992L32.328 68.9788L30.0447 76.4183L36.2936 71.7528L42.4224 76.4183L40.0189 68.9788L46.2678 64.3134H38.5769L36.2936 57Z" fill="black"/>
<path fill-rule="evenodd" clip-rule="evenodd" d="M63.5719 57L61.1685 64.3134H53.5977L59.8466 68.9788L57.4431 76.4183L63.5719 71.7528L69.8208 76.4183L67.4174 68.9788L73.5461 64.3134H65.9753L63.5719 57Z" fill="black"/>
<path fill-rule="evenodd" clip-rule="evenodd" d="M90.9703 57L88.6871 64.3134H80.9961L87.1248 68.9788L84.7214 76.4183L90.9703 71.7528L97.0991 76.4183L94.8158 68.9788L101.065 64.3134H93.3738L90.9703 57Z" fill="black"/>
<path fill-rule="evenodd" clip-rule="evenodd" d="M117.166 57L114.762 64.3134H107.191L113.32 68.9788L111.037 76.4183L117.166 71.7528L123.415 76.4183L121.011 68.9788L127.14 64.3134H119.449L117.166 57Z" fill="black"/>
</g>
<defs>
<clipPath id="clip0_1_341">
<rect width="150" height="37" fill="white"/>
</clipPath>
<clipPath id="clip1_1_341">
<rect width="128" height="20" fill="white" transform="translate(0 57)"/>
</clipPath>
</defs>
</svg>
